<?xml version="1.0" encoding="utf-8"?>
<!-- Generator: Adobe Illustrator 22.1.0, SVG Export Plug-In . SVG Version: 6.00 Build 0)  -->
<svg version="1.1" id="Layer_1" xmlns="http://www.w3.org/2000/svg" xmlns:xlink="http://www.w3.org/1999/xlink" x="0px" y="0px"
	 width="286px" height="45.2px" viewBox="0 0 286 45.2" style="enable-background:new 0 0 286 45.2;" xml:space="preserve">
<style type="text/css">
	.st0{fill:#1E407C;}
	.st1{fill:#376AD3;}
</style>
<g>
	<g>
		<g>
			<path class="st0" d="M188.2,28h-8.4l-4.1,7.9h-3.2L186,11.1h2.9l3.1,24.7h-2.9L188.2,28z M187.9,25.3l-0.6-5.1
				c-0.3-2-0.4-4-0.5-5.9c-0.4,1-0.9,2-1.4,3c-0.5,1-1.9,3.7-4.2,8H187.9z"/>
			<path class="st0" d="M196.8,35.8H194l5.6-26.3h2.8L196.8,35.8z"/>
			<path class="st0" d="M204.9,35.8h-2.8l5.6-26.3h2.8L204.9,35.8z"/>
			<path class="st0" d="M213,35.8h-2.8l4-18.5h2.8L213,35.8z M215,12.6c0-0.6,0.2-1.1,0.5-1.5c0.4-0.4,0.8-0.6,1.4-0.6
				c1,0,1.5,0.5,1.5,1.5c0,0.6-0.2,1.1-0.6,1.6s-0.8,0.6-1.3,0.6c-0.5,0-0.8-0.1-1.1-0.4S215,13.1,215,12.6z"/>
			<path class="st0" d="M228.1,17c1,0,2,0.3,2.8,0.8c0.8,0.6,1.4,1.4,1.9,2.4h0.2l1.1-2.9h2.1l-3.9,18.5h-2.2l0.4-3.5h-0.1
				c-2,2.6-4.1,3.9-6.4,3.9c-1.6,0-2.8-0.6-3.7-1.7c-0.9-1.1-1.3-2.6-1.3-4.6c0-2.3,0.4-4.5,1.2-6.5c0.8-2,1.9-3.6,3.3-4.7
				C224.9,17.5,226.4,17,228.1,17z M224.9,33.8c1.1,0,2.2-0.5,3.3-1.6c1.1-1,2-2.4,2.6-4.1c0.7-1.7,1-3.4,1-5c0-1.2-0.3-2.1-0.9-2.8
				c-0.6-0.7-1.5-1-2.5-1c-1.2,0-2.3,0.5-3.3,1.5c-1,1-1.8,2.3-2.4,3.9c-0.6,1.7-0.9,3.4-0.9,5.2c0,1.3,0.3,2.2,0.8,2.9
				C223.2,33.5,223.9,33.8,224.9,33.8z"/>
			<path class="st0" d="M247.8,35.8l2.5-11.7c0.2-1.2,0.3-2,0.3-2.4c0-0.7-0.2-1.3-0.6-1.7c-0.4-0.4-1-0.6-1.9-0.6c-1,0-2,0.3-2.9,1
				c-1,0.7-1.8,1.6-2.5,2.9c-0.7,1.3-1.3,2.8-1.6,4.6l-1.7,8h-2.8l4-18.5h2.4l-0.4,3.4h0.2c1.1-1.4,2.1-2.3,3.1-2.9
				c1-0.6,2.1-0.9,3.1-0.9c1.4,0,2.6,0.4,3.4,1.2c0.8,0.8,1.2,1.9,1.2,3.3c0,0.9-0.1,1.9-0.4,3l-2.4,11.4H247.8z"/>
			<path class="st0" d="M262.7,36.2c-2.2,0-3.9-0.6-5.1-1.8c-1.2-1.2-1.8-2.9-1.8-5.1c0-2.3,0.4-4.3,1.3-6.2c0.8-1.9,2-3.4,3.5-4.5
				c1.5-1.1,3.1-1.6,5-1.6c1.5,0,3.1,0.3,4.5,0.9l-0.8,2.4c-1.4-0.6-2.6-0.9-3.7-0.9c-1.3,0-2.4,0.4-3.5,1.3c-1,0.9-1.9,2.1-2.5,3.6
				c-0.6,1.5-0.9,3.2-0.9,5c0,1.4,0.4,2.6,1.1,3.4c0.7,0.8,1.8,1.2,3.1,1.2c0.8,0,1.6-0.1,2.3-0.3c0.7-0.2,1.4-0.5,2.1-0.8v2.4
				C265.9,35.8,264.4,36.2,262.7,36.2z"/>
			<path class="st0" d="M276.6,36.2c-2.1,0-3.7-0.6-4.9-1.8c-1.2-1.2-1.8-2.9-1.8-5.1c0-2.1,0.4-4.2,1.3-6.1c0.8-1.9,2-3.5,3.3-4.5
				c1.4-1.1,2.9-1.6,4.6-1.6c1.7,0,3,0.4,3.9,1.1c0.9,0.7,1.3,1.8,1.3,3.1c0,2-0.9,3.6-2.8,4.8c-1.9,1.2-4.6,1.7-8,1.7h-0.6
				l-0.1,1.4c0,1.5,0.3,2.6,1,3.5c0.7,0.8,1.8,1.2,3.2,1.2c0.7,0,1.4-0.1,2.2-0.3c0.8-0.2,1.7-0.6,2.8-1.1v2.5c-1.1,0.5-2,0.8-2.8,1
				C278.5,36.1,277.6,36.2,276.6,36.2z M279,19.4c-1.2,0-2.3,0.5-3.3,1.6c-1,1.1-1.8,2.5-2.3,4.4h0.2c2.6,0,4.5-0.3,5.9-1
				c1.4-0.7,2.1-1.6,2.1-2.9c0-0.6-0.2-1.1-0.6-1.5S279.9,19.4,279,19.4z"/>
		</g>
	</g>
	<g>
		<g>
			<path class="st0" d="M22.6,35.8h-6.7L5.2,17.1H5c0.2,3.3,0.3,5.7,0.3,7.1v11.6H0.7V11.1h6.6L18,29.6h0.1
				c-0.2-3.2-0.3-5.5-0.3-6.8V11.1h4.7V35.8z"/>
			<path class="st0" d="M27.5,12c0-1.7,0.9-2.5,2.8-2.5c1.9,0,2.8,0.8,2.8,2.5c0,0.8-0.2,1.4-0.7,1.9c-0.5,0.4-1.2,0.7-2.1,0.7
				C28.4,14.6,27.5,13.7,27.5,12z M32.9,35.8h-5.2V16.9h5.2V35.8z"/>
			<path class="st0" d="M45.6,32.1c0.9,0,2-0.2,3.2-0.6v3.8c-1.3,0.6-2.9,0.9-4.7,0.9c-2.1,0-3.6-0.5-4.5-1.6
				c-0.9-1-1.4-2.6-1.4-4.7v-9.1h-2.5v-2.2l2.8-1.7l1.5-4h3.3v4h5.3v3.9h-5.3v9.1c0,0.7,0.2,1.3,0.6,1.6
				C44.3,31.9,44.9,32.1,45.6,32.1z"/>
			<path class="st0" d="M59.9,32.1c0.9,0,2-0.2,3.2-0.6v3.8c-1.3,0.6-2.9,0.9-4.7,0.9c-2.1,0-3.6-0.5-4.5-1.6
				c-0.9-1-1.4-2.6-1.4-4.7v-9.1H50v-2.2l2.8-1.7l1.5-4h3.3v4h5.3v3.9h-5.3v9.1c0,0.7,0.2,1.3,0.6,1.6
				C58.7,31.9,59.2,32.1,59.9,32.1z"/>
			<path class="st0" d="M78.3,35.8l-1-2.6h-0.1c-0.9,1.1-1.8,1.9-2.7,2.3c-0.9,0.4-2.1,0.6-3.6,0.6c-1.8,0-3.2-0.5-4.3-1.6
				c-1-1-1.6-2.5-1.6-4.4c0-2,0.7-3.5,2.1-4.4c1.4-1,3.5-1.5,6.4-1.6l3.3-0.1v-0.8c0-1.9-1-2.9-2.9-2.9c-1.5,0-3.3,0.5-5.3,1.4
				l-1.7-3.5c2.2-1.1,4.6-1.7,7.2-1.7c2.5,0,4.5,0.6,5.8,1.7c1.4,1.1,2,2.8,2,5v12.6H78.3z M76.8,27.1l-2,0.1
				c-1.5,0-2.6,0.3-3.3,0.8c-0.7,0.5-1.1,1.3-1.1,2.3c0,1.5,0.8,2.2,2.5,2.2c1.2,0,2.2-0.3,2.9-1c0.7-0.7,1.1-1.6,1.1-2.7V27.1z"/>
			<path class="st0" d="M104,35.8h-5.2v-11c0-1.4-0.2-2.4-0.7-3.1c-0.5-0.7-1.3-1-2.3-1c-1.4,0-2.5,0.5-3.1,1.4c-0.6,1-1,2.6-1,4.8
				v8.9h-5.2V16.9h3.9l0.7,2.4h0.3c0.6-0.9,1.4-1.6,2.4-2.1c1-0.5,2.2-0.7,3.4-0.7c2.2,0,3.9,0.6,5,1.8c1.1,1.2,1.7,2.9,1.7,5.2
				V35.8z"/>
			<path class="st0" d="M105.9,16.9h5.6l3.6,10.6c0.3,0.9,0.5,2,0.6,3.3h0.1c0.1-1.2,0.4-2.3,0.7-3.3l3.5-10.6h5.5l-8,21.3
				c-0.7,2-1.8,3.5-3.1,4.4c-1.4,1-2.9,1.5-4.8,1.5c-0.9,0-1.8-0.1-2.6-0.3v-4.1c0.6,0.1,1.3,0.2,2,0.2c0.9,0,1.7-0.3,2.4-0.8
				c0.7-0.6,1.2-1.4,1.6-2.5l0.3-0.9L105.9,16.9z"/>
		</g>
	</g>
	<g>
		<path class="st1" d="M167.7,35.8h-4.2l-1.9-5.3V12.4h6.1V35.8z"/>
		<path class="st1" d="M145.5,21.3h-7l3.1-9.1c0.8-2.3,1.5-4.5,1.9-6.4c0.2,0.6,0.4,1.6,0.9,3c0.1,0.3,0.2,0.6,0.3,0.8l9.1,26.3h6.5
			l-13-35h-7.4l-13,35h6.6l3.4-9.7h10.3L145.5,21.3z"/>
		<circle class="st1" cx="164.6" cy="6.2" r="3.2"/>
	</g>
</g>
</svg>
